<?xml version="1.0" encoding="utf-8"?>
<!-- Generator: Adobe Illustrator 16.0.0, SVG Export Plug-In . SVG Version: 6.00 Build 0)  -->
<!DOCTYPE svg PUBLIC "-//W3C//DTD SVG 1.1//EN" "http://www.w3.org/Graphics/SVG/1.1/DTD/svg11.dtd">
<svg version="1.1" id="Capa_1" xmlns="http://www.w3.org/2000/svg" xmlns:xlink="http://www.w3.org/1999/xlink" x="0px" y="0px"
	 width="512px" height="512px" viewBox="-236 -251 512 512" enable-background="new -236 -251 512 512" xml:space="preserve">
<g>
	<path fill="#F5F5F5" d="M-859.807,167.948c0,0-0.396,10.053,9.457,10.053c12.257,0,113.795-0.089,113.795-0.089l0.176-93.293
		c0,0-1.609-15.343,13.315-15.343h47.22c17.636,0,16.533,15.343,16.533,15.343l-0.177,92.94c0,0,96.291,0,111.37,0
		c12.521,0,11.992-12.521,11.992-12.521V-6.91L-693.15-146.562L-859.807-6.91V167.948z"/>
	<path fill="#A9C544" d="M-921.202-19.894c0,0,14.153,26.078,45.016,0l184.425-156.032l172.919,155.062
		c35.712,25.771,49.115,0,49.115,0l-222.034-201.135L-921.202-19.894z"/>
	<polygon fill="#A9C544" points="-523.031,-176.301 -567.517,-176.301 -567.341,-122.357 -523.031,-84.771 	"/>
</g>
<g>
	<g>
		<g>
			<path fill="#F5F5F5" d="M120.081-153.008c-7.344,0-13.359,6.016-13.359,13.32c0,7.344,6.016,13.359,13.359,13.359
				s13.32-6.016,13.32-13.359C133.401-146.992,127.425-153.008,120.081-153.008z"/>
		</g>
	</g>
	<g>
		<g>
			<path fill="#A9C544" d="M113.401-195c-33.319,0-59.999,26.641-59.999,60c0,3.984,0.664,8.008,1.328,11.328l-99.336,97.344
				c-1.328,1.328-1.992,3.984-1.992,6.016l6.66,33.32c0.684,3.32,3.34,5.352,6.68,5.352h33.32c4.004,0,6.68-2.695,6.68-6.719v-20
				h26.66c4.004,0,6.68-2.656,6.68-6.641v-20h20c3.984,0,6.641-2.656,6.641-6.641v-20h20c2.031,0,4.022-0.703,5.351-2.695
				c0,0,5.352-6.68,10-11.992c3.32,0.664,7.305,1.328,11.328,1.328c33.32,0,60-26.641,60-60S146.722-195,113.401-195z
				 M120.081-113.008c-14.688,0-26.68-11.992-26.68-26.68c0-14.648,11.992-26.641,26.68-26.641
				c14.648,0,26.641,11.992,26.641,26.641C146.722-125,134.729-113.008,120.081-113.008z"/>
		</g>
	</g>
	<g>
		<g>
			<path fill="#F5F5F5" d="M216.722,51.641c-11.992-15.977-23.32-16.641-53.32-0.625l-57.305,35.312
				c-5.352,2.656-14.023,4.688-24.022,5.312c-5.977,0.703-12.695,2.031-17.344,6.016c-1.992,0-3.32,0.703-4.648,0.703h-100.02
				c-20,0-20,10-20,13.281c0,4.023-2.656,6.719-6.66,6.719s-6.66-2.695-6.66-6.719C-73.258,95-60.602,85-39.938,85h100.02
				c1.328,0,2.656-9.336-1.328-15.312C48.051,54.336,30.062,45,10.746,45H-15.27c-13.984,0-27.988-4.688-37.988-11.992
				c-24.004-18.008-61.348,1.328-80,13.32V31.641h-46.68V205h46.68v-20h86.66c13.34,0,27.344-1.328,40.664-3.359l86.68-13.281
				c3.32,0,6.68-0.703,9.335-1.367c7.969-1.328,15.312-4.648,21.992-11.328l100.664-77.305
				C220.745,71.641,222.073,59.688,216.722,51.641z M-146.598,55v130v6.641h-20V45h20V55z"/>
		</g>
	</g>
</g>
</svg>
