<?xml version="1.0" encoding="utf-8"?>
<!-- Generator: Adobe Illustrator 16.0.0, SVG Export Plug-In . SVG Version: 6.00 Build 0)  -->
<!DOCTYPE svg PUBLIC "-//W3C//DTD SVG 1.1//EN" "http://www.w3.org/Graphics/SVG/1.1/DTD/svg11.dtd">
<svg version="1.1" id="Capa_1" xmlns="http://www.w3.org/2000/svg" xmlns:xlink="http://www.w3.org/1999/xlink" x="0px" y="0px"
	 width="512px" height="512px" viewBox="-236 -251 512 512" enable-background="new -236 -251 512 512" xml:space="preserve">
<g>
	<path fill="#F5F5F5" d="M-144.343,194.947c0,0-0.396,10.053,9.457,10.053c12.257,0,113.795-0.089,113.795-0.089l0.176-93.293
		c0,0-1.609-15.343,13.315-15.343h47.22c17.636,0,16.533,15.343,16.533,15.343l-0.177,92.94c0,0,96.291,0,111.37,0
		c12.521,0,11.992-12.521,11.992-12.521V20.089L22.314-119.563L-144.343,20.089V194.947z"/>
	<path fill="#A9C544" d="M-205.737,7.105c0,0,14.153,26.078,45.016,0L23.703-148.927L196.622,6.135c35.712,25.771,49.115,0,49.115,0
		L23.703-195L-205.737,7.105z"/>
	<polygon fill="#A9C544" points="192.434,-149.302 147.947,-149.302 148.123,-95.358 192.434,-57.772 	"/>
</g>
<g>
	<g>
		<g>
			<path fill="#F5F5F5" d="M-621.183-714.305c-7.344,0-13.359,6.016-13.359,13.32c0,7.344,6.016,13.359,13.359,13.359
				s13.32-6.016,13.32-13.359C-607.863-708.289-613.839-714.305-621.183-714.305z"/>
		</g>
	</g>
	<g>
		<g>
			<path fill="#A9C544" d="M-627.863-756.297c-33.319,0-59.999,26.641-59.999,60c0,3.984,0.664,8.008,1.328,11.328l-99.336,97.344
				c-1.328,1.328-1.992,3.984-1.992,6.016l6.66,33.32c0.684,3.32,3.34,5.352,6.68,5.352h33.32c4.004,0,6.68-2.695,6.68-6.719v-20
				h26.66c4.004,0,6.68-2.656,6.68-6.641v-20h20c3.984,0,6.641-2.656,6.641-6.641v-20h20c2.031,0,4.022-0.703,5.351-2.695
				c0,0,5.352-6.68,10-11.992c3.32,0.664,7.305,1.328,11.328,1.328c33.32,0,60-26.641,60-60S-594.542-756.297-627.863-756.297z
				 M-621.183-674.305c-14.688,0-26.68-11.992-26.68-26.68c0-14.648,11.992-26.641,26.68-26.641
				c14.648,0,26.641,11.992,26.641,26.641C-594.542-686.297-606.535-674.305-621.183-674.305z"/>
		</g>
	</g>
	<g>
		<g>
			<path fill="#F5F5F5" d="M-524.542-509.656c-11.992-15.977-23.32-16.641-53.32-0.625l-57.305,35.312
				c-5.352,2.656-14.023,4.688-24.022,5.312c-5.977,0.703-12.695,2.031-17.344,6.016c-1.992,0-3.32,0.703-4.648,0.703h-100.02
				c-20,0-20,10-20,13.281c0,4.023-2.656,6.719-6.66,6.719s-6.66-2.695-6.66-6.719c0-16.641,12.656-26.641,33.32-26.641h100.02
				c1.328,0,2.656-9.336-1.328-15.312c-10.703-15.352-28.691-24.688-48.008-24.688h-26.016c-13.984,0-27.988-4.688-37.988-11.992
				c-24.004-18.008-61.348,1.328-80,13.32v-14.688h-46.68v173.359h46.68v-20h86.66c13.34,0,27.344-1.328,40.664-3.359l86.68-13.281
				c3.32,0,6.68-0.703,9.335-1.367c7.969-1.328,15.312-4.648,21.992-11.328l100.664-77.305
				C-520.519-489.656-519.191-501.609-524.542-509.656z M-887.862-506.297v130v6.641h-20v-146.641h20V-506.297z"/>
		</g>
	</g>
</g>
<g>
	<path fill="none" d="M818.66-355.624c0,30.02,10.625,56.445,26.348,76.25c0.234,0.234,0.527,0.391,0.723,0.625
		c2.305,2.93,4.668,5.703,7.109,8.281c0.02,0.039,0.039,0.078,0.039,0.078c1.621,1.719,3.32,3.203,4.98,4.766
		c16.309,14.727,35.664,23.359,54.141,23.359s37.812-8.633,54.141-23.359c1.68-1.562,3.359-3.047,5-4.766c0,0,0-0.039,0-0.078
		c2.461-2.578,4.844-5.352,7.109-8.281c0.234-0.234,0.547-0.391,0.781-0.625c15.703-19.805,26.328-46.23,26.328-76.25v-26.66H818.66
		V-355.624z"/>
	<path fill="none" d="M901.98-229.608c-23.105-2.812-43.594-15.156-59.707-32.656c-0.02,0-0.039-0.039-0.059-0.078l-2.988,11.953
		l44.707,61.484l18.086-40.703C902.02-229.608,902-229.608,901.98-229.608z"/>
	<polygon fill="none" points="933.211,-168.983 890.809,-168.983 886.805,-148.983 937.195,-148.983 934.891,-160.507 	"/>
	<path fill="none" d="M981.766-262.265c-16.133,17.5-36.641,29.844-59.746,32.656c-0.02,0-0.02,0-0.039,0l18.066,40.703
		l44.727-61.484l-3.008-11.953C981.766-262.304,981.766-262.265,981.766-262.265z"/>
	<path d="M1018.641-382.284h-13.281v26.66c0,30.02-10.625,56.445-26.328,76.25c-0.234,0.234-0.547,0.391-0.781,0.625
		c-2.266,2.93-4.648,5.703-7.109,8.281c0,0.039,0,0.078,0,0.078c-1.641,1.719-3.32,3.203-5,4.766
		c-16.328,14.727-35.664,23.359-54.141,23.359s-37.832-8.633-54.141-23.359c-1.66-1.562-3.359-3.047-4.98-4.766
		c0,0-0.02-0.039-0.039-0.078c-2.441-2.578-4.805-5.352-7.109-8.281c-0.195-0.234-0.488-0.391-0.723-0.625
		c-15.723-19.805-26.348-46.23-26.348-76.25v-26.66h-13.32v26.66c0,27.695,9.805,56.914,26.387,80.312l-6.191,24.766
		c-0.488,1.875-0.078,3.906,1.074,5.508l2.969,4.062c-27.188,4.609-57.773,16.289-97.773,37.344
		C719.598-197.187,712-184.608,712-170.78v28.516c0,3.672,2.988,6.641,6.66,6.641h160h0.02h2.48c0.02,0,0.02,0,0.02,0l61.367-0.078
		c0.078,0,0.195,0.078,0.312,0.078h162.5c3.672,0,6.641-2.969,6.641-6.641v-28.516c0-13.828-7.578-26.406-19.805-32.852
		c-40-21.055-70.586-32.734-97.773-37.344l2.969-4.062c1.172-1.602,1.562-3.633,1.094-5.508l-6.211-24.766
		c16.602-23.398,26.367-52.617,26.367-80.312V-382.284z M839.227-250.39l2.988-11.953c0.02,0.039,0.039,0.078,0.059,0.078
		c16.113,17.5,36.602,29.844,59.707,32.656c0.02,0,0.039,0,0.039,0l-18.086,40.703L839.227-250.39z M886.805-148.983l4.004-20
		h42.402l1.68,8.477l2.305,11.523H886.805z M940.047-188.905l-18.066-40.703c0.02,0,0.02,0,0.039,0
		c23.105-2.812,43.613-15.156,59.746-32.656c0,0,0-0.039,0-0.078l3.008,11.953L940.047-188.905z"/>
	<path fill="#A9C544" d="M1005.359-382.284h13.281h6.719h13.281c3.711,0,6.719-2.988,6.719-6.68s-3.008-6.66-6.719-6.66H1032v-6.66
		c0-18.574-4.375-36.074-12.188-51.641l-59.883,11.504c-0.43,0.098-0.82,0.137-1.289,0.137c-1.719,0-3.438-0.703-4.688-1.953
		c-1.562-1.562-2.266-3.809-1.836-5.977l10.938-57.402c-5.664-2.539-11.523-4.727-17.695-6.484v-1.426
		c0-11.074-9.062-20.098-20.137-20.098h-26.445c-11.094,0-20.117,9.023-20.117,20.117v1.406c-6.152,1.758-12.051,3.945-17.715,6.484
		l10.938,57.402c0.41,2.168-0.273,4.414-1.836,5.977c-1.25,1.25-2.969,1.953-4.707,1.953c-0.43,0-0.84-0.039-1.27-0.117
		l-59.844-11.523C796.375-438.358,792-420.858,792-402.284v6.66h-6.66c-3.691,0-6.68,2.988-6.68,6.66c0,3.691,2.988,6.68,6.68,6.68
		h13.32h6.68h13.32H1005.359z"/>
	<path fill="#A9C544" d="M975.398-501.132l-8.32,43.77l45.586-8.77C1003.172-480.214,990.516-492.147,975.398-501.132z"/>
	<path fill="#A9C544" d="M848.602-501.132c-15.137,8.984-27.793,20.918-37.266,35l45.625,8.77L848.602-501.132z"/>
</g>
<g>
	<path fill="none" d="M-6.709-546.312c2.305,2.93,4.668,5.703,7.109,8.281c0.02,0.039,0.039,0.078,0.039,0.078
		c1.621,1.719,3.32,3.203,4.98,4.766c16.309,14.727,35.664,23.359,54.141,23.359s37.812-8.633,54.141-23.359
		c1.68-1.562,3.359-3.047,5-4.766c0,0,0-0.039,0-0.078c2.461-2.578,4.844-5.352,7.109-8.281c0.234-0.234,0.547-0.391,0.781-0.625
		c15.703-19.805,26.328-46.23,26.328-76.25v-26.66H-33.779v26.66c0,30.02,10.625,56.445,26.348,76.25
		C-7.197-546.703-6.904-546.547-6.709-546.312z"/>
	<path fill="none" d="M49.541-497.172c-23.105-2.812-43.594-15.156-59.707-32.656c-0.02,0-0.039-0.039-0.059-0.078l-2.988,11.953
		l44.707,61.484l18.086-40.703C49.58-497.172,49.561-497.172,49.541-497.172z"/>
	<polygon fill="none" points="80.771,-436.547 38.369,-436.547 34.365,-416.547 84.756,-416.547 82.451,-428.07 	"/>
	<path fill="none" d="M129.326-529.828c-16.133,17.5-36.641,29.844-59.746,32.656c-0.02,0-0.02,0-0.039,0l18.066,40.703
		l44.727-61.484l-3.008-11.953C129.326-529.867,129.326-529.828,129.326-529.828z"/>
	<path d="M239.756-471.195c-40-21.055-70.586-32.734-97.773-37.344l2.969-4.062c1.172-1.602,1.562-3.633,1.094-5.508l-6.211-24.766
		c16.602-23.398,26.367-52.617,26.367-80.312v-26.66h6.719h13.281c3.711,0,6.719-2.988,6.719-6.68s-3.008-6.66-6.719-6.66h-6.641
		v-6.66c0-18.574-4.375-36.074-12.188-51.641l-59.883,11.504c-0.43,0.098-0.82,0.137-1.289,0.137c-1.719,0-3.438-0.703-4.688-1.953
		c-1.562-1.562-2.266-3.809-1.836-5.977l10.938-57.402c-5.664-2.539-11.523-4.727-17.695-6.484v-1.426
		c0-11.074-9.062-20.098-20.137-20.098H46.338c-11.094,0-20.117,9.023-20.117,20.117v1.406c-6.152,1.758-12.051,3.945-17.715,6.484
		l10.938,57.402c0.41,2.168-0.273,4.414-1.836,5.977c-1.25,1.25-2.969,1.953-4.707,1.953c-0.43,0-0.84-0.039-1.27-0.117
		l-59.844-11.523c-7.852,15.566-12.227,33.066-12.227,51.641v6.66h-6.66c-3.691,0-6.68,2.988-6.68,6.66
		c0,3.691,2.988,6.68,6.68,6.68h13.32h6.68v26.66c0,27.695,9.805,56.914,26.387,80.312l-6.191,24.766
		c-0.488,1.875-0.078,3.906,1.074,5.508l2.969,4.062c-27.188,4.609-57.773,16.289-97.773,37.344
		c-12.207,6.445-19.805,19.023-19.805,32.852v28.516c0,3.672,2.988,6.641,6.66,6.641h160h0.02h2.48c0.02,0,0.02,0,0.02,0
		l61.367-0.078c0.078,0,0.195,0.078,0.312,0.078h162.5c3.672,0,6.641-2.969,6.641-6.641v-28.516
		C259.561-452.172,251.982-464.75,239.756-471.195z M-33.779-623.188v-26.66H152.92v26.66c0,30.02-10.625,56.445-26.328,76.25
		c-0.234,0.234-0.547,0.391-0.781,0.625c-2.266,2.93-4.648,5.703-7.109,8.281c0,0.039,0,0.078,0,0.078
		c-1.641,1.719-3.32,3.203-5,4.766c-16.328,14.727-35.664,23.359-54.141,23.359s-37.832-8.633-54.141-23.359
		c-1.66-1.562-3.359-3.047-4.98-4.766c0,0-0.02-0.039-0.039-0.078c-2.441-2.578-4.805-5.352-7.109-8.281
		c-0.195-0.234-0.488-0.391-0.723-0.625C-23.154-566.742-33.779-593.168-33.779-623.188z M-13.213-517.953l2.988-11.953
		c0.02,0.039,0.039,0.078,0.059,0.078c16.113,17.5,36.602,29.844,59.707,32.656c0.02,0,0.039,0,0.039,0l-18.086,40.703
		L-13.213-517.953z M34.365-416.547l4.004-20h42.402l1.68,8.477l2.305,11.523H34.365z M87.607-456.469l-18.066-40.703
		c0.02,0,0.02,0,0.039,0c23.105-2.812,43.613-15.156,59.746-32.656c0,0,0-0.039,0-0.078l3.008,11.953L87.607-456.469z"/>
	<path d="M122.959-768.695l-8.32,43.77l45.586-8.77C150.732-747.777,138.076-759.711,122.959-768.695z"/>
	<path d="M-3.838-768.695c-15.137,8.984-27.793,20.918-37.266,35l45.625,8.77L-3.838-768.695z"/>
</g>
</svg>
